<svg xmlns="http://www.w3.org/2000/svg" viewBox="0 0 512 512">
  <rect width="512" height="512" rx="128" fill="#4f46e5"/>
  <path d="M368 128H144C117.5 128 96 149.5 96 176V336C96 362.5 117.5 384 144 384H368C394.5 384 416 362.5 416 336V176C416 149.5 394.5 128 368 128Z" fill="white" fill-opacity="0.2"/>
  <path d="M352 160H160C142.3 160 128 174.3 128 192V320C128 337.7 142.3 352 160 352H352C369.7 352 384 337.7 384 320V192C384 174.3 369.7 160 352 160ZM192 312H168V288H192V312ZM192 264H168V240H192V264ZM192 216H168V200H192V216ZM268 312H216V288H268V312ZM268 264H216V240H268V264ZM268 216H216V200H268V216ZM344 312H292V288H344V312ZM344 264H292V240H344V264ZM344 216H292V200H344V216Z" fill="white"/>
</svg>